<mxfile host="app.diagrams.net" agent="Mozilla/5.0 (Windows NT 10.0; Win64; x64) AppleWebKit/537.36 (KHTML, like Gecko) Chrome/129.0.0.0 Safari/537.36" version="24.7.16">
  <diagram name="Page-1" id="ik4WDMmtV7FtbhntEscY">
    <mxGraphModel dx="5340" dy="2660" grid="1" gridSize="10" guides="1" tooltips="1" connect="1" arrows="1" fold="1" page="1" pageScale="1" pageWidth="827" pageHeight="1169" math="0" shadow="0">
      <root>
        <mxCell id="0" />
        <mxCell id="1" parent="0" />
        <mxCell id="tHkP6_mY6QJhbm2siABH-1" value="&lt;font style=&quot;font-size: 24px;&quot;&gt;Item&lt;/font&gt;" style="rounded=0;whiteSpace=wrap;html=1;fontSize=24;" parent="1" vertex="1">
          <mxGeometry x="-360" y="-20" width="170" height="60" as="geometry" />
        </mxCell>
        <mxCell id="tHkP6_mY6QJhbm2siABH-2" value="Book" style="rounded=0;whiteSpace=wrap;html=1;fontSize=24;" parent="1" vertex="1">
          <mxGeometry x="-840" y="290" width="170" height="60" as="geometry" />
        </mxCell>
        <mxCell id="tHkP6_mY6QJhbm2siABH-3" value="Digital_Media" style="rounded=0;whiteSpace=wrap;html=1;fontSize=24;" parent="1" vertex="1">
          <mxGeometry x="-70" y="290" width="190" height="60" as="geometry" />
        </mxCell>
        <mxCell id="tHkP6_mY6QJhbm2siABH-4" value="Journal" style="rounded=0;whiteSpace=wrap;html=1;fontSize=24;" parent="1" vertex="1">
          <mxGeometry x="-430" y="290" width="170" height="60" as="geometry" />
        </mxCell>
        <mxCell id="tHkP6_mY6QJhbm2siABH-5" value="&lt;div style=&quot;font-size: 24px;&quot;&gt;&lt;br style=&quot;font-size: 24px;&quot;&gt;&lt;/div&gt;ISA" style="triangle;whiteSpace=wrap;html=1;direction=north;fontSize=24;" parent="1" vertex="1">
          <mxGeometry x="-320" y="110" width="90" height="80" as="geometry" />
        </mxCell>
        <mxCell id="tHkP6_mY6QJhbm2siABH-6" value="Condition" style="ellipse;whiteSpace=wrap;html=1;align=center;fontSize=24;" parent="1" vertex="1">
          <mxGeometry x="-500" y="-80" width="125" height="50" as="geometry" />
        </mxCell>
        <mxCell id="tHkP6_mY6QJhbm2siABH-7" value="Location" style="ellipse;whiteSpace=wrap;html=1;align=center;fontSize=24;" parent="1" vertex="1">
          <mxGeometry x="-180" y="-80" width="110" height="50" as="geometry" />
        </mxCell>
        <mxCell id="tHkP6_mY6QJhbm2siABH-8" value="Genre" style="ellipse;whiteSpace=wrap;html=1;align=center;fontSize=24;" parent="1" vertex="1">
          <mxGeometry x="-690" y="400" width="100" height="40" as="geometry" />
        </mxCell>
        <mxCell id="tHkP6_mY6QJhbm2siABH-9" value="Issue_date" style="ellipse;whiteSpace=wrap;html=1;align=center;fontSize=24;" parent="1" vertex="1">
          <mxGeometry x="-280" y="400" width="130" height="60" as="geometry" />
        </mxCell>
        <mxCell id="tHkP6_mY6QJhbm2siABH-10" value="Volume" style="ellipse;whiteSpace=wrap;html=1;align=center;fontSize=24;" parent="1" vertex="1">
          <mxGeometry x="-390" y="450" width="100" height="40" as="geometry" />
        </mxCell>
        <mxCell id="tHkP6_mY6QJhbm2siABH-11" value="ISSN" style="ellipse;whiteSpace=wrap;html=1;align=center;fontSize=24;" parent="1" vertex="1">
          <mxGeometry x="-500" y="400" width="100" height="40" as="geometry" />
        </mxCell>
        <mxCell id="tHkP6_mY6QJhbm2siABH-12" value="Author" style="ellipse;whiteSpace=wrap;html=1;align=center;fontSize=24;" parent="1" vertex="1">
          <mxGeometry x="-810" y="470" width="100" height="40" as="geometry" />
        </mxCell>
        <mxCell id="tHkP6_mY6QJhbm2siABH-13" value="ISBN" style="ellipse;whiteSpace=wrap;html=1;align=center;fontSize=24;" parent="1" vertex="1">
          <mxGeometry x="-925" y="400" width="100" height="40" as="geometry" />
        </mxCell>
        <mxCell id="tHkP6_mY6QJhbm2siABH-14" value="Format" style="ellipse;whiteSpace=wrap;html=1;align=center;fontSize=24;" parent="1" vertex="1">
          <mxGeometry x="-110" y="400" width="100" height="40" as="geometry" />
        </mxCell>
        <mxCell id="tHkP6_mY6QJhbm2siABH-15" value="Size" style="ellipse;whiteSpace=wrap;html=1;align=center;fontSize=24;" parent="1" vertex="1">
          <mxGeometry x="60" y="400" width="100" height="40" as="geometry" />
        </mxCell>
        <mxCell id="tHkP6_mY6QJhbm2siABH-16" value="" style="endArrow=none;html=1;rounded=0;entryX=0.5;entryY=1;entryDx=0;entryDy=0;exitX=0.471;exitY=0;exitDx=0;exitDy=0;exitPerimeter=0;fontSize=24;" parent="1" source="tHkP6_mY6QJhbm2siABH-1" target="tHkP6_mY6QJhbm2siABH-85" edge="1">
          <mxGeometry relative="1" as="geometry">
            <mxPoint x="-152" y="-30" as="sourcePoint" />
            <mxPoint x="-280" y="-60" as="targetPoint" />
          </mxGeometry>
        </mxCell>
        <mxCell id="tHkP6_mY6QJhbm2siABH-17" value="" style="endArrow=none;html=1;rounded=0;entryX=0.75;entryY=0;entryDx=0;entryDy=0;exitX=0.463;exitY=0.994;exitDx=0;exitDy=0;exitPerimeter=0;fontSize=24;" parent="1" source="tHkP6_mY6QJhbm2siABH-7" target="tHkP6_mY6QJhbm2siABH-1" edge="1">
          <mxGeometry relative="1" as="geometry">
            <mxPoint x="-52" y="130" as="sourcePoint" />
            <mxPoint x="-180" y="100" as="targetPoint" />
          </mxGeometry>
        </mxCell>
        <mxCell id="tHkP6_mY6QJhbm2siABH-18" value="" style="endArrow=none;html=1;rounded=0;entryX=0.5;entryY=1;entryDx=0;entryDy=0;exitX=1;exitY=0.5;exitDx=0;exitDy=0;fontSize=24;" parent="1" source="tHkP6_mY6QJhbm2siABH-5" target="tHkP6_mY6QJhbm2siABH-1" edge="1">
          <mxGeometry relative="1" as="geometry">
            <mxPoint x="-42" y="140" as="sourcePoint" />
            <mxPoint x="-170" y="110" as="targetPoint" />
          </mxGeometry>
        </mxCell>
        <mxCell id="tHkP6_mY6QJhbm2siABH-19" value="" style="endArrow=none;html=1;rounded=0;entryX=0.5;entryY=0;entryDx=0;entryDy=0;exitX=0.5;exitY=1;exitDx=0;exitDy=0;fontSize=24;" parent="1" source="tHkP6_mY6QJhbm2siABH-2" target="tHkP6_mY6QJhbm2siABH-12" edge="1">
          <mxGeometry relative="1" as="geometry">
            <mxPoint x="-500" y="590" as="sourcePoint" />
            <mxPoint x="-628" y="560" as="targetPoint" />
          </mxGeometry>
        </mxCell>
        <mxCell id="tHkP6_mY6QJhbm2siABH-20" value="" style="endArrow=none;html=1;rounded=0;entryX=0.022;entryY=0.98;entryDx=0;entryDy=0;exitX=0.5;exitY=0;exitDx=0;exitDy=0;entryPerimeter=0;fontSize=24;" parent="1" source="tHkP6_mY6QJhbm2siABH-3" target="tHkP6_mY6QJhbm2siABH-5" edge="1">
          <mxGeometry relative="1" as="geometry">
            <mxPoint x="-22" y="160" as="sourcePoint" />
            <mxPoint x="-150" y="130" as="targetPoint" />
          </mxGeometry>
        </mxCell>
        <mxCell id="tHkP6_mY6QJhbm2siABH-21" value="" style="endArrow=none;html=1;rounded=0;entryX=0;entryY=0.5;entryDx=0;entryDy=0;exitX=0.5;exitY=0;exitDx=0;exitDy=0;fontSize=24;" parent="1" source="tHkP6_mY6QJhbm2siABH-4" target="tHkP6_mY6QJhbm2siABH-5" edge="1">
          <mxGeometry relative="1" as="geometry">
            <mxPoint x="-12" y="170" as="sourcePoint" />
            <mxPoint x="-140" y="140" as="targetPoint" />
          </mxGeometry>
        </mxCell>
        <mxCell id="tHkP6_mY6QJhbm2siABH-22" value="" style="endArrow=none;html=1;rounded=0;entryX=0.5;entryY=1;entryDx=0;entryDy=0;exitX=-0.008;exitY=0.027;exitDx=0;exitDy=0;exitPerimeter=0;fontSize=24;" parent="1" source="tHkP6_mY6QJhbm2siABH-5" edge="1">
          <mxGeometry relative="1" as="geometry">
            <mxPoint x="-632" y="320" as="sourcePoint" />
            <mxPoint x="-760" y="290" as="targetPoint" />
          </mxGeometry>
        </mxCell>
        <mxCell id="tHkP6_mY6QJhbm2siABH-23" value="" style="endArrow=none;html=1;rounded=0;entryX=0.5;entryY=1;entryDx=0;entryDy=0;exitX=0.25;exitY=0;exitDx=0;exitDy=0;fontSize=24;" parent="1" source="tHkP6_mY6QJhbm2siABH-1" target="tHkP6_mY6QJhbm2siABH-6" edge="1">
          <mxGeometry relative="1" as="geometry">
            <mxPoint x="-297" y="-10" as="sourcePoint" />
            <mxPoint x="-425" y="-40" as="targetPoint" />
          </mxGeometry>
        </mxCell>
        <mxCell id="tHkP6_mY6QJhbm2siABH-24" value="" style="endArrow=none;html=1;rounded=0;entryX=0.5;entryY=0;entryDx=0;entryDy=0;exitX=0.75;exitY=1;exitDx=0;exitDy=0;fontSize=24;" parent="1" source="tHkP6_mY6QJhbm2siABH-2" target="tHkP6_mY6QJhbm2siABH-8" edge="1">
          <mxGeometry relative="1" as="geometry">
            <mxPoint x="-490" y="600" as="sourcePoint" />
            <mxPoint x="-618" y="570" as="targetPoint" />
          </mxGeometry>
        </mxCell>
        <mxCell id="tHkP6_mY6QJhbm2siABH-25" value="" style="endArrow=none;html=1;rounded=0;entryX=0.5;entryY=0;entryDx=0;entryDy=0;exitX=0.25;exitY=1;exitDx=0;exitDy=0;fontSize=24;" parent="1" source="tHkP6_mY6QJhbm2siABH-4" target="tHkP6_mY6QJhbm2siABH-11" edge="1">
          <mxGeometry relative="1" as="geometry">
            <mxPoint x="-480" y="610" as="sourcePoint" />
            <mxPoint x="-608" y="580" as="targetPoint" />
          </mxGeometry>
        </mxCell>
        <mxCell id="tHkP6_mY6QJhbm2siABH-26" value="" style="endArrow=none;html=1;rounded=0;entryX=0.5;entryY=0;entryDx=0;entryDy=0;exitX=0.5;exitY=1;exitDx=0;exitDy=0;fontSize=24;" parent="1" source="tHkP6_mY6QJhbm2siABH-4" target="tHkP6_mY6QJhbm2siABH-10" edge="1">
          <mxGeometry relative="1" as="geometry">
            <mxPoint x="-470" y="620" as="sourcePoint" />
            <mxPoint x="-598" y="590" as="targetPoint" />
          </mxGeometry>
        </mxCell>
        <mxCell id="tHkP6_mY6QJhbm2siABH-27" value="" style="endArrow=none;html=1;rounded=0;entryX=0.5;entryY=0;entryDx=0;entryDy=0;exitX=0.75;exitY=1;exitDx=0;exitDy=0;fontSize=24;" parent="1" source="tHkP6_mY6QJhbm2siABH-4" target="tHkP6_mY6QJhbm2siABH-9" edge="1">
          <mxGeometry relative="1" as="geometry">
            <mxPoint x="-460" y="630" as="sourcePoint" />
            <mxPoint x="-588" y="600" as="targetPoint" />
          </mxGeometry>
        </mxCell>
        <mxCell id="tHkP6_mY6QJhbm2siABH-28" value="" style="endArrow=none;html=1;rounded=0;entryX=0.5;entryY=0;entryDx=0;entryDy=0;exitX=0.25;exitY=1;exitDx=0;exitDy=0;fontSize=24;" parent="1" source="tHkP6_mY6QJhbm2siABH-3" target="tHkP6_mY6QJhbm2siABH-14" edge="1">
          <mxGeometry relative="1" as="geometry">
            <mxPoint x="-450" y="640" as="sourcePoint" />
            <mxPoint x="-578" y="610" as="targetPoint" />
          </mxGeometry>
        </mxCell>
        <mxCell id="tHkP6_mY6QJhbm2siABH-29" value="" style="endArrow=none;html=1;rounded=0;entryX=0.5;entryY=1;entryDx=0;entryDy=0;exitX=0.5;exitY=0;exitDx=0;exitDy=0;fontSize=24;" parent="1" source="tHkP6_mY6QJhbm2siABH-15" edge="1">
          <mxGeometry relative="1" as="geometry">
            <mxPoint x="168" y="380" as="sourcePoint" />
            <mxPoint x="40" y="350" as="targetPoint" />
          </mxGeometry>
        </mxCell>
        <mxCell id="tHkP6_mY6QJhbm2siABH-30" value="" style="endArrow=none;html=1;rounded=0;entryX=0.5;entryY=1;entryDx=0;entryDy=0;exitX=0.25;exitY=1;exitDx=0;exitDy=0;fontSize=24;" parent="1" source="tHkP6_mY6QJhbm2siABH-2" edge="1">
          <mxGeometry relative="1" as="geometry">
            <mxPoint x="-752" y="430" as="sourcePoint" />
            <mxPoint x="-880" y="400" as="targetPoint" />
          </mxGeometry>
        </mxCell>
        <mxCell id="tHkP6_mY6QJhbm2siABH-31" value="Staff" style="rounded=0;whiteSpace=wrap;html=1;fontSize=24;" parent="1" vertex="1">
          <mxGeometry x="1720" y="390" width="170" height="60" as="geometry" />
        </mxCell>
        <mxCell id="tHkP6_mY6QJhbm2siABH-32" value="Faculty_Member" style="rounded=0;whiteSpace=wrap;html=1;fontSize=24;" parent="1" vertex="1">
          <mxGeometry x="1395" y="390" width="220" height="60" as="geometry" />
        </mxCell>
        <mxCell id="tHkP6_mY6QJhbm2siABH-33" value="Student" style="rounded=0;whiteSpace=wrap;html=1;fontSize=24;" parent="1" vertex="1">
          <mxGeometry x="1122.5" y="390" width="170" height="60" as="geometry" />
        </mxCell>
        <mxCell id="tHkP6_mY6QJhbm2siABH-34" value="Customer" style="rounded=0;whiteSpace=wrap;html=1;fontSize=24;" parent="1" vertex="1">
          <mxGeometry x="1397" width="170" height="60" as="geometry" />
        </mxCell>
        <mxCell id="tHkP6_mY6QJhbm2siABH-35" value="&lt;div style=&quot;font-size: 24px;&quot;&gt;&lt;br style=&quot;font-size: 24px;&quot;&gt;&lt;/div&gt;&lt;div style=&quot;font-size: 24px;&quot;&gt;ISA&lt;/div&gt;" style="triangle;whiteSpace=wrap;html=1;direction=north;fontSize=24;" parent="1" vertex="1">
          <mxGeometry x="1452.5" y="240" width="105" height="80" as="geometry" />
        </mxCell>
        <mxCell id="tHkP6_mY6QJhbm2siABH-36" value="C_name" style="ellipse;whiteSpace=wrap;html=1;align=center;fontSize=24;" parent="1" vertex="1">
          <mxGeometry x="1420" y="-120" width="124" height="60" as="geometry" />
        </mxCell>
        <mxCell id="tHkP6_mY6QJhbm2siABH-37" value="C_email" style="ellipse;whiteSpace=wrap;html=1;align=center;fontSize=24;" parent="1" vertex="1">
          <mxGeometry x="1620" y="-50" width="130" height="50" as="geometry" />
        </mxCell>
        <mxCell id="tHkP6_mY6QJhbm2siABH-38" value="Department" style="ellipse;whiteSpace=wrap;html=1;align=center;fontSize=24;" parent="1" vertex="1">
          <mxGeometry x="1360" y="500" width="140" height="50" as="geometry" />
        </mxCell>
        <mxCell id="tHkP6_mY6QJhbm2siABH-39" value="Major" style="ellipse;whiteSpace=wrap;html=1;align=center;fontSize=24;" parent="1" vertex="1">
          <mxGeometry x="1070" y="510" width="100" height="40" as="geometry" />
        </mxCell>
        <mxCell id="tHkP6_mY6QJhbm2siABH-40" value="Designation" style="ellipse;whiteSpace=wrap;html=1;align=center;fontSize=24;" parent="1" vertex="1">
          <mxGeometry x="1654" y="500" width="160" height="40" as="geometry" />
        </mxCell>
        <mxCell id="tHkP6_mY6QJhbm2siABH-41" value="Tel_no" style="ellipse;shape=doubleEllipse;margin=3;whiteSpace=wrap;html=1;align=center;fontSize=24;" parent="1" vertex="1">
          <mxGeometry x="1250" y="-70" width="125" height="60" as="geometry" />
        </mxCell>
        <mxCell id="tHkP6_mY6QJhbm2siABH-42" value="YOS" style="ellipse;whiteSpace=wrap;html=1;align=center;fontSize=24;" parent="1" vertex="1">
          <mxGeometry x="1241" y="510" width="100" height="40" as="geometry" />
        </mxCell>
        <mxCell id="tHkP6_mY6QJhbm2siABH-43" value="Office" style="ellipse;whiteSpace=wrap;html=1;align=center;fontSize=24;" parent="1" vertex="1">
          <mxGeometry x="1870" y="500" width="100" height="40" as="geometry" />
        </mxCell>
        <mxCell id="tHkP6_mY6QJhbm2siABH-44" value="Title" style="ellipse;whiteSpace=wrap;html=1;align=center;fontSize=24;" parent="1" vertex="1">
          <mxGeometry x="1530" y="505" width="100" height="40" as="geometry" />
        </mxCell>
        <mxCell id="tHkP6_mY6QJhbm2siABH-45" value="" style="endArrow=none;html=1;rounded=0;entryX=0.5;entryY=1;entryDx=0;entryDy=0;exitX=0.25;exitY=0;exitDx=0;exitDy=0;fontSize=24;" parent="1" source="tHkP6_mY6QJhbm2siABH-34" target="tHkP6_mY6QJhbm2siABH-41" edge="1">
          <mxGeometry relative="1" as="geometry">
            <mxPoint x="1360" y="240" as="sourcePoint" />
            <mxPoint x="1520" y="240" as="targetPoint" />
          </mxGeometry>
        </mxCell>
        <mxCell id="tHkP6_mY6QJhbm2siABH-46" value="" style="endArrow=none;html=1;rounded=0;exitX=0.5;exitY=0;exitDx=0;exitDy=0;fontSize=24;" parent="1" edge="1">
          <mxGeometry relative="1" as="geometry">
            <mxPoint x="1497.5" y="20" as="sourcePoint" />
            <mxPoint x="1492.5" y="-60" as="targetPoint" />
            <Array as="points" />
          </mxGeometry>
        </mxCell>
        <mxCell id="tHkP6_mY6QJhbm2siABH-47" value="" style="endArrow=none;html=1;rounded=0;exitX=0.75;exitY=0;exitDx=0;exitDy=0;entryX=-0.023;entryY=0.586;entryDx=0;entryDy=0;entryPerimeter=0;fontSize=24;" parent="1" source="tHkP6_mY6QJhbm2siABH-34" target="tHkP6_mY6QJhbm2siABH-37" edge="1">
          <mxGeometry relative="1" as="geometry">
            <mxPoint x="1575" y="20" as="sourcePoint" />
            <mxPoint x="1570" y="-60" as="targetPoint" />
            <Array as="points" />
          </mxGeometry>
        </mxCell>
        <mxCell id="tHkP6_mY6QJhbm2siABH-48" value="" style="endArrow=none;html=1;rounded=0;entryX=0.553;entryY=1.04;entryDx=0;entryDy=0;entryPerimeter=0;exitX=1;exitY=0.5;exitDx=0;exitDy=0;fontSize=24;" parent="1" source="tHkP6_mY6QJhbm2siABH-35" edge="1">
          <mxGeometry relative="1" as="geometry">
            <mxPoint x="1506" y="147.6" as="sourcePoint" />
            <mxPoint x="1504.0099999999998" y="80.00000000000009" as="targetPoint" />
          </mxGeometry>
        </mxCell>
        <mxCell id="tHkP6_mY6QJhbm2siABH-49" value="" style="endArrow=none;html=1;rounded=0;entryX=0;entryY=0.5;entryDx=0;entryDy=0;exitX=0.483;exitY=0.015;exitDx=0;exitDy=0;exitPerimeter=0;fontSize=24;" parent="1" source="tHkP6_mY6QJhbm2siABH-32" target="tHkP6_mY6QJhbm2siABH-35" edge="1">
          <mxGeometry relative="1" as="geometry">
            <mxPoint x="1505.5" y="310" as="sourcePoint" />
            <mxPoint x="1504.5099999999998" y="240.00000000000009" as="targetPoint" />
          </mxGeometry>
        </mxCell>
        <mxCell id="tHkP6_mY6QJhbm2siABH-50" value="" style="endArrow=none;html=1;rounded=0;entryX=0.01;entryY=0.985;entryDx=0;entryDy=0;entryPerimeter=0;exitX=0.5;exitY=0;exitDx=0;exitDy=0;fontSize=24;" parent="1" source="tHkP6_mY6QJhbm2siABH-31" target="tHkP6_mY6QJhbm2siABH-35" edge="1">
          <mxGeometry relative="1" as="geometry">
            <mxPoint x="1780.99" y="280" as="sourcePoint" />
            <mxPoint x="1779.9999999999998" y="210.00000000000009" as="targetPoint" />
          </mxGeometry>
        </mxCell>
        <mxCell id="tHkP6_mY6QJhbm2siABH-51" value="" style="endArrow=none;html=1;rounded=0;exitX=0.5;exitY=0;exitDx=0;exitDy=0;entryX=0.015;entryY=-0.001;entryDx=0;entryDy=0;entryPerimeter=0;fontSize=24;" parent="1" source="tHkP6_mY6QJhbm2siABH-33" target="tHkP6_mY6QJhbm2siABH-35" edge="1">
          <mxGeometry relative="1" as="geometry">
            <mxPoint x="1250.99" y="280" as="sourcePoint" />
            <mxPoint x="1450" y="230" as="targetPoint" />
          </mxGeometry>
        </mxCell>
        <mxCell id="tHkP6_mY6QJhbm2siABH-52" value="" style="endArrow=none;html=1;rounded=0;entryX=0.75;entryY=1;entryDx=0;entryDy=0;exitX=0.5;exitY=0;exitDx=0;exitDy=0;fontSize=24;" parent="1" source="tHkP6_mY6QJhbm2siABH-44" target="tHkP6_mY6QJhbm2siABH-32" edge="1">
          <mxGeometry relative="1" as="geometry">
            <mxPoint x="1672" y="420" as="sourcePoint" />
            <mxPoint x="1544" y="390" as="targetPoint" />
          </mxGeometry>
        </mxCell>
        <mxCell id="tHkP6_mY6QJhbm2siABH-53" value="" style="endArrow=none;html=1;rounded=0;entryX=0.697;entryY=0.99;entryDx=0;entryDy=0;exitX=0.5;exitY=0;exitDx=0;exitDy=0;entryPerimeter=0;fontSize=24;" parent="1" source="tHkP6_mY6QJhbm2siABH-42" target="tHkP6_mY6QJhbm2siABH-33" edge="1">
          <mxGeometry relative="1" as="geometry">
            <mxPoint x="1389" y="605" as="sourcePoint" />
            <mxPoint x="1261" y="575" as="targetPoint" />
          </mxGeometry>
        </mxCell>
        <mxCell id="tHkP6_mY6QJhbm2siABH-54" value="" style="endArrow=none;html=1;rounded=0;entryX=0.5;entryY=0;entryDx=0;entryDy=0;exitX=0.25;exitY=1;exitDx=0;exitDy=0;fontSize=24;" parent="1" source="tHkP6_mY6QJhbm2siABH-32" target="tHkP6_mY6QJhbm2siABH-38" edge="1">
          <mxGeometry relative="1" as="geometry">
            <mxPoint x="1358" y="620" as="sourcePoint" />
            <mxPoint x="1230" y="590" as="targetPoint" />
          </mxGeometry>
        </mxCell>
        <mxCell id="tHkP6_mY6QJhbm2siABH-55" value="" style="endArrow=none;html=1;rounded=0;entryX=0.37;entryY=0.99;entryDx=0;entryDy=0;exitX=0.5;exitY=0;exitDx=0;exitDy=0;entryPerimeter=0;fontSize=24;" parent="1" source="tHkP6_mY6QJhbm2siABH-39" target="tHkP6_mY6QJhbm2siABH-33" edge="1">
          <mxGeometry relative="1" as="geometry">
            <mxPoint x="1368" y="560" as="sourcePoint" />
            <mxPoint x="1240" y="530" as="targetPoint" />
          </mxGeometry>
        </mxCell>
        <mxCell id="tHkP6_mY6QJhbm2siABH-56" value="" style="endArrow=none;html=1;rounded=0;entryX=0.5;entryY=0;entryDx=0;entryDy=0;exitX=0.29;exitY=1;exitDx=0;exitDy=0;exitPerimeter=0;fontSize=24;" parent="1" source="tHkP6_mY6QJhbm2siABH-31" target="tHkP6_mY6QJhbm2siABH-40" edge="1">
          <mxGeometry relative="1" as="geometry">
            <mxPoint x="1898" y="430" as="sourcePoint" />
            <mxPoint x="1770" y="400" as="targetPoint" />
          </mxGeometry>
        </mxCell>
        <mxCell id="tHkP6_mY6QJhbm2siABH-57" value="" style="endArrow=none;html=1;rounded=0;entryX=0.706;entryY=1;entryDx=0;entryDy=0;exitX=0.5;exitY=0;exitDx=0;exitDy=0;entryPerimeter=0;fontSize=24;" parent="1" source="tHkP6_mY6QJhbm2siABH-43" target="tHkP6_mY6QJhbm2siABH-31" edge="1">
          <mxGeometry relative="1" as="geometry">
            <mxPoint x="1548" y="625" as="sourcePoint" />
            <mxPoint x="1420" y="595" as="targetPoint" />
          </mxGeometry>
        </mxCell>
        <mxCell id="tHkP6_mY6QJhbm2siABH-58" value="Borrow" style="shape=rhombus;perimeter=rhombusPerimeter;whiteSpace=wrap;html=1;align=center;fontSize=24;" parent="1" vertex="1">
          <mxGeometry x="450" y="-90" width="240" height="120" as="geometry" />
        </mxCell>
        <mxCell id="tHkP6_mY6QJhbm2siABH-59" value="Reserve" style="shape=rhombus;perimeter=rhombusPerimeter;whiteSpace=wrap;html=1;align=center;fontSize=24;" parent="1" vertex="1">
          <mxGeometry x="480" y="190" width="240" height="120" as="geometry" />
        </mxCell>
        <mxCell id="tHkP6_mY6QJhbm2siABH-60" value="Has" style="shape=rhombus;perimeter=rhombusPerimeter;whiteSpace=wrap;html=1;align=center;fontSize=24;direction=south;rotation=0;" parent="1" vertex="1">
          <mxGeometry x="960" y="-380" width="255" height="140" as="geometry" />
        </mxCell>
        <mxCell id="tHkP6_mY6QJhbm2siABH-66" value="" style="endArrow=none;html=1;rounded=0;entryX=0;entryY=0.5;entryDx=0;entryDy=0;exitX=1;exitY=0.5;exitDx=0;exitDy=0;fontSize=24;" parent="1" source="tHkP6_mY6QJhbm2siABH-58" target="tHkP6_mY6QJhbm2siABH-34" edge="1">
          <mxGeometry relative="1" as="geometry">
            <mxPoint x="880" y="40" as="sourcePoint" />
            <mxPoint x="1040" y="40" as="targetPoint" />
          </mxGeometry>
        </mxCell>
        <mxCell id="tHkP6_mY6QJhbm2siABH-67" value="" style="endArrow=none;html=1;rounded=0;entryX=0;entryY=0.5;entryDx=0;entryDy=0;exitX=1;exitY=0.25;exitDx=0;exitDy=0;fontSize=24;" parent="1" source="tHkP6_mY6QJhbm2siABH-1" target="tHkP6_mY6QJhbm2siABH-58" edge="1">
          <mxGeometry relative="1" as="geometry">
            <mxPoint x="290" y="120" as="sourcePoint" />
            <mxPoint x="450" y="120" as="targetPoint" />
          </mxGeometry>
        </mxCell>
        <mxCell id="tHkP6_mY6QJhbm2siABH-68" value="" style="endArrow=none;html=1;rounded=0;entryX=0.5;entryY=1;entryDx=0;entryDy=0;fontSize=24;exitX=1;exitY=0.5;exitDx=0;exitDy=0;" parent="1" source="tHkP6_mY6QJhbm2siABH-115" target="tHkP6_mY6QJhbm2siABH-60" edge="1">
          <mxGeometry relative="1" as="geometry">
            <mxPoint x="890" y="-340" as="sourcePoint" />
            <mxPoint x="30" y="1230" as="targetPoint" />
            <Array as="points" />
          </mxGeometry>
        </mxCell>
        <mxCell id="tHkP6_mY6QJhbm2siABH-69" value="" style="endArrow=none;html=1;rounded=0;fontSize=24;entryX=0;entryY=0.5;entryDx=0;entryDy=0;exitX=1;exitY=0.5;exitDx=0;exitDy=0;" parent="1" source="tHkP6_mY6QJhbm2siABH-132" target="tHkP6_mY6QJhbm2siABH-126" edge="1">
          <mxGeometry relative="1" as="geometry">
            <mxPoint x="1930" y="-510" as="sourcePoint" />
            <mxPoint x="2420" y="90" as="targetPoint" />
          </mxGeometry>
        </mxCell>
        <mxCell id="tHkP6_mY6QJhbm2siABH-70" value="" style="endArrow=none;html=1;rounded=0;entryX=0.5;entryY=0;entryDx=0;entryDy=0;exitX=0.25;exitY=0;exitDx=0;exitDy=0;fontSize=24;" parent="1" source="tHkP6_mY6QJhbm2siABH-34" target="tHkP6_mY6QJhbm2siABH-60" edge="1">
          <mxGeometry relative="1" as="geometry">
            <mxPoint x="2150" y="470" as="sourcePoint" />
            <mxPoint x="1400" y="750" as="targetPoint" />
            <Array as="points" />
          </mxGeometry>
        </mxCell>
        <mxCell id="tHkP6_mY6QJhbm2siABH-72" value="" style="endArrow=none;html=1;rounded=0;fontSize=24;entryX=0;entryY=0.75;entryDx=0;entryDy=0;exitX=1;exitY=0.5;exitDx=0;exitDy=0;" parent="1" source="tHkP6_mY6QJhbm2siABH-59" target="tHkP6_mY6QJhbm2siABH-34" edge="1">
          <mxGeometry width="50" height="50" relative="1" as="geometry">
            <mxPoint x="600" y="800" as="sourcePoint" />
            <mxPoint x="590" y="530" as="targetPoint" />
          </mxGeometry>
        </mxCell>
        <mxCell id="tHkP6_mY6QJhbm2siABH-73" value="" style="endArrow=none;html=1;rounded=0;entryX=0;entryY=0.5;entryDx=0;entryDy=0;exitX=1;exitY=0.75;exitDx=0;exitDy=0;fontSize=24;" parent="1" source="tHkP6_mY6QJhbm2siABH-1" target="tHkP6_mY6QJhbm2siABH-59" edge="1">
          <mxGeometry relative="1" as="geometry">
            <mxPoint x="910" y="1630" as="sourcePoint" />
            <mxPoint x="1100" y="800" as="targetPoint" />
          </mxGeometry>
        </mxCell>
        <mxCell id="tHkP6_mY6QJhbm2siABH-82" value="Reserve_Date" style="ellipse;whiteSpace=wrap;html=1;align=center;fontSize=24;" parent="1" vertex="1">
          <mxGeometry x="540" y="460" width="190" height="50" as="geometry" />
        </mxCell>
        <mxCell id="tHkP6_mY6QJhbm2siABH-83" value="" style="endArrow=none;html=1;rounded=0;entryX=0.5;entryY=0;entryDx=0;entryDy=0;fontSize=24;exitX=0.5;exitY=1;exitDx=0;exitDy=0;" parent="1" source="tHkP6_mY6QJhbm2siABH-59" target="tHkP6_mY6QJhbm2siABH-82" edge="1">
          <mxGeometry relative="1" as="geometry">
            <mxPoint x="560" y="520" as="sourcePoint" />
            <mxPoint x="-15" y="1730" as="targetPoint" />
          </mxGeometry>
        </mxCell>
        <mxCell id="tHkP6_mY6QJhbm2siABH-85" value="&lt;span style=&quot;font-size: 24px;&quot;&gt;CopyID&lt;/span&gt;" style="ellipse;whiteSpace=wrap;html=1;align=center;fontStyle=4;" parent="1" vertex="1">
          <mxGeometry x="-340" y="-100" width="120" height="40" as="geometry" />
        </mxCell>
        <mxCell id="tHkP6_mY6QJhbm2siABH-86" value="&lt;span style=&quot;font-size: 24px;&quot;&gt;CID&lt;/span&gt;" style="ellipse;whiteSpace=wrap;html=1;align=center;fontStyle=4;" parent="1" vertex="1">
          <mxGeometry x="1690" y="30" width="100" height="40" as="geometry" />
        </mxCell>
        <mxCell id="tHkP6_mY6QJhbm2siABH-87" value="" style="endArrow=none;html=1;rounded=0;exitX=1;exitY=0.5;exitDx=0;exitDy=0;entryX=0;entryY=0.5;entryDx=0;entryDy=0;fontSize=24;" parent="1" source="tHkP6_mY6QJhbm2siABH-34" target="tHkP6_mY6QJhbm2siABH-86" edge="1">
          <mxGeometry relative="1" as="geometry">
            <mxPoint x="1580" y="141" as="sourcePoint" />
            <mxPoint x="1659" y="100" as="targetPoint" />
            <Array as="points" />
          </mxGeometry>
        </mxCell>
        <mxCell id="tHkP6_mY6QJhbm2siABH-90" value="&lt;font style=&quot;font-size: 28px;&quot;&gt;M&lt;/font&gt;" style="text;html=1;align=center;verticalAlign=middle;resizable=0;points=[];autosize=1;strokeColor=none;fillColor=none;" parent="1" vertex="1">
          <mxGeometry x="-70" y="-100" width="50" height="50" as="geometry" />
        </mxCell>
        <mxCell id="tHkP6_mY6QJhbm2siABH-91" value="N" style="text;html=1;align=center;verticalAlign=middle;resizable=0;points=[];autosize=1;strokeColor=none;fillColor=none;fontSize=28;" parent="1" vertex="1">
          <mxGeometry x="1241" y="-20" width="40" height="50" as="geometry" />
        </mxCell>
        <mxCell id="tHkP6_mY6QJhbm2siABH-101" value="&lt;font style=&quot;font-size: 28px;&quot;&gt;M&lt;/font&gt;" style="text;html=1;align=center;verticalAlign=middle;resizable=0;points=[];autosize=1;strokeColor=none;fillColor=none;" parent="1" vertex="1">
          <mxGeometry x="-140" width="50" height="50" as="geometry" />
        </mxCell>
        <mxCell id="tHkP6_mY6QJhbm2siABH-102" value="N" style="text;html=1;align=center;verticalAlign=middle;resizable=0;points=[];autosize=1;strokeColor=none;fillColor=none;fontSize=28;" parent="1" vertex="1">
          <mxGeometry x="1292.5" y="30" width="40" height="50" as="geometry" />
        </mxCell>
        <mxCell id="tHkP6_mY6QJhbm2siABH-111" value="" style="endArrow=none;html=1;rounded=0;entryX=0.5;entryY=1;entryDx=0;entryDy=0;fontSize=24;exitX=0.5;exitY=0;exitDx=0;exitDy=0;" parent="1" source="tHkP6_mY6QJhbm2siABH-58" target="tHkP6_mY6QJhbm2siABH-115" edge="1">
          <mxGeometry relative="1" as="geometry">
            <mxPoint x="640" y="-280" as="sourcePoint" />
            <mxPoint x="634.9999999999991" y="-470" as="targetPoint" />
          </mxGeometry>
        </mxCell>
        <mxCell id="tHkP6_mY6QJhbm2siABH-114" value="" style="endArrow=none;html=1;rounded=0;exitX=0.5;exitY=0;exitDx=0;exitDy=0;fontSize=24;entryX=0.5;entryY=1;entryDx=0;entryDy=0;" parent="1" source="tHkP6_mY6QJhbm2siABH-115" target="tHkP6_mY6QJhbm2siABH-116" edge="1">
          <mxGeometry relative="1" as="geometry">
            <mxPoint x="675" y="-460" as="sourcePoint" />
            <mxPoint x="820" y="-1510" as="targetPoint" />
          </mxGeometry>
        </mxCell>
        <mxCell id="tHkP6_mY6QJhbm2siABH-115" value="Borrow_Details" style="rounded=0;whiteSpace=wrap;html=1;fontSize=24;" parent="1" vertex="1">
          <mxGeometry x="540" y="-540" width="180" height="60" as="geometry" />
        </mxCell>
        <mxCell id="tHkP6_mY6QJhbm2siABH-116" value="Borrow_Date" style="ellipse;whiteSpace=wrap;html=1;align=center;fontSize=24;" parent="1" vertex="1">
          <mxGeometry x="540" y="-635" width="190" height="50" as="geometry" />
        </mxCell>
        <mxCell id="tHkP6_mY6QJhbm2siABH-117" value="Return_Date" style="ellipse;whiteSpace=wrap;html=1;align=center;fontSize=24;" parent="1" vertex="1">
          <mxGeometry x="780" y="-625" width="170" height="50" as="geometry" />
        </mxCell>
        <mxCell id="tHkP6_mY6QJhbm2siABH-118" value="" style="endArrow=none;html=1;rounded=0;entryX=0;entryY=0.5;entryDx=0;entryDy=0;exitX=0.894;exitY=0.033;exitDx=0;exitDy=0;fontSize=24;exitPerimeter=0;" parent="1" source="tHkP6_mY6QJhbm2siABH-115" target="tHkP6_mY6QJhbm2siABH-117" edge="1">
          <mxGeometry relative="1" as="geometry">
            <mxPoint x="395" y="-660" as="sourcePoint" />
            <mxPoint x="555" y="-660" as="targetPoint" />
          </mxGeometry>
        </mxCell>
        <mxCell id="tHkP6_mY6QJhbm2siABH-119" value="" style="endArrow=none;html=1;rounded=0;exitX=0;exitY=0.25;exitDx=0;exitDy=0;entryX=0.5;entryY=1;entryDx=0;entryDy=0;" parent="1" source="tHkP6_mY6QJhbm2siABH-115" target="tHkP6_mY6QJhbm2siABH-120" edge="1">
          <mxGeometry relative="1" as="geometry">
            <mxPoint x="909.9999999999991" y="-820" as="sourcePoint" />
            <mxPoint x="1000" y="-860" as="targetPoint" />
          </mxGeometry>
        </mxCell>
        <mxCell id="tHkP6_mY6QJhbm2siABH-120" value="&lt;span style=&quot;font-size: 24px;&quot;&gt;BID&lt;/span&gt;" style="ellipse;whiteSpace=wrap;html=1;align=center;fontStyle=4;" parent="1" vertex="1">
          <mxGeometry x="410" y="-625" width="100" height="40" as="geometry" />
        </mxCell>
        <mxCell id="tHkP6_mY6QJhbm2siABH-122" value="" style="endArrow=none;dashed=1;html=1;rounded=0;fontSize=24;" parent="1" edge="1">
          <mxGeometry width="50" height="50" relative="1" as="geometry">
            <mxPoint x="1670" y="280" as="sourcePoint" />
            <mxPoint x="1670" y="280" as="targetPoint" />
            <Array as="points">
              <mxPoint x="1920" y="-120" />
              <mxPoint x="430" y="-940" />
              <mxPoint x="190" y="-570" />
            </Array>
          </mxGeometry>
        </mxCell>
        <mxCell id="tHkP6_mY6QJhbm2siABH-126" value="Fine" style="rounded=0;whiteSpace=wrap;html=1;fontSize=24;" parent="1" vertex="1">
          <mxGeometry x="1910" y="-570" width="170" height="60" as="geometry" />
        </mxCell>
        <mxCell id="tHkP6_mY6QJhbm2siABH-127" value="" style="endArrow=none;html=1;rounded=0;entryX=0.5;entryY=0;entryDx=0;entryDy=0;exitX=1;exitY=0.75;exitDx=0;exitDy=0;fontSize=24;" parent="1" source="tHkP6_mY6QJhbm2siABH-126" target="tHkP6_mY6QJhbm2siABH-128" edge="1">
          <mxGeometry relative="1" as="geometry">
            <mxPoint x="-505" y="-500" as="sourcePoint" />
            <mxPoint x="-495" y="-420" as="targetPoint" />
          </mxGeometry>
        </mxCell>
        <mxCell id="tHkP6_mY6QJhbm2siABH-128" value="&lt;span style=&quot;font-size: 24px;&quot;&gt;FID&lt;/span&gt;" style="ellipse;whiteSpace=wrap;html=1;align=center;fontStyle=4;" parent="1" vertex="1">
          <mxGeometry x="2260" y="-470" width="100" height="40" as="geometry" />
        </mxCell>
        <mxCell id="tHkP6_mY6QJhbm2siABH-129" value="&lt;font style=&quot;font-size: 28px;&quot;&gt;M&lt;/font&gt;" style="text;html=1;align=center;verticalAlign=middle;resizable=0;points=[];autosize=1;strokeColor=none;fillColor=none;" parent="1" vertex="1">
          <mxGeometry x="580" y="-475" width="50" height="50" as="geometry" />
        </mxCell>
        <mxCell id="tHkP6_mY6QJhbm2siABH-130" value="&lt;font style=&quot;font-size: 24px;&quot;&gt;Amount&lt;/font&gt;" style="ellipse;whiteSpace=wrap;html=1;align=center;" parent="1" vertex="1">
          <mxGeometry x="2180" y="-680" width="120" height="40" as="geometry" />
        </mxCell>
        <mxCell id="tHkP6_mY6QJhbm2siABH-131" value="" style="endArrow=none;html=1;rounded=0;entryX=0.5;entryY=1;entryDx=0;entryDy=0;fontSize=24;" parent="1" target="tHkP6_mY6QJhbm2siABH-130" edge="1">
          <mxGeometry relative="1" as="geometry">
            <mxPoint x="2080" y="-550" as="sourcePoint" />
            <mxPoint x="-530" y="-420" as="targetPoint" />
          </mxGeometry>
        </mxCell>
        <mxCell id="tHkP6_mY6QJhbm2siABH-132" value="Levied" style="shape=rhombus;perimeter=rhombusPerimeter;whiteSpace=wrap;html=1;align=center;fontSize=24;" parent="1" vertex="1">
          <mxGeometry x="1440" y="-600" width="240" height="120" as="geometry" />
        </mxCell>
        <mxCell id="tHkP6_mY6QJhbm2siABH-133" value="" style="endArrow=none;html=1;rounded=0;fontSize=24;entryX=0;entryY=0.5;entryDx=0;entryDy=0;" parent="1" target="tHkP6_mY6QJhbm2siABH-132" edge="1">
          <mxGeometry relative="1" as="geometry">
            <mxPoint x="1300" y="-460" as="sourcePoint" />
            <mxPoint x="2470" y="-690" as="targetPoint" />
          </mxGeometry>
        </mxCell>
        <mxCell id="tHkP6_mY6QJhbm2siABH-134" value="&lt;font style=&quot;font-size: 28px;&quot;&gt;1&lt;/font&gt;" style="text;html=1;align=center;verticalAlign=middle;resizable=0;points=[];autosize=1;strokeColor=none;fillColor=none;" parent="1" vertex="1">
          <mxGeometry x="1357" y="-570" width="40" height="50" as="geometry" />
        </mxCell>
        <mxCell id="tHkP6_mY6QJhbm2siABH-135" value="&lt;font style=&quot;font-size: 28px;&quot;&gt;1&lt;/font&gt;" style="text;html=1;align=center;verticalAlign=middle;resizable=0;points=[];autosize=1;strokeColor=none;fillColor=none;" parent="1" vertex="1">
          <mxGeometry x="1341" y="-180" width="40" height="50" as="geometry" />
        </mxCell>
        <mxCell id="tHkP6_mY6QJhbm2siABH-136" value="&lt;font style=&quot;font-size: 28px;&quot;&gt;M&lt;/font&gt;" style="text;html=1;align=center;verticalAlign=middle;resizable=0;points=[];autosize=1;strokeColor=none;fillColor=none;" parent="1" vertex="1">
          <mxGeometry x="1800" y="-600" width="50" height="50" as="geometry" />
        </mxCell>
        <mxCell id="tHkP6_mY6QJhbm2siABH-137" value="&lt;font style=&quot;font-size: 28px;&quot;&gt;M&lt;/font&gt;" style="text;html=1;align=center;verticalAlign=middle;resizable=0;points=[];autosize=1;strokeColor=none;fillColor=none;" parent="1" vertex="1">
          <mxGeometry x="760" y="-520" width="50" height="50" as="geometry" />
        </mxCell>
      </root>
    </mxGraphModel>
  </diagram>
</mxfile>
